<mxfile host="app.diagrams.net" agent="Mozilla/5.0 (Windows NT 10.0; Win64; x64) AppleWebKit/537.36 (KHTML, like Gecko) Chrome/133.0.0.0 Safari/537.36 Edg/133.0.0.0" version="26.0.14">
  <diagram name="Page-1" id="4sPLaiaIActOzvfPWP_D">
    <mxGraphModel dx="444" dy="656" grid="1" gridSize="10" guides="1" tooltips="1" connect="1" arrows="1" fold="1" page="1" pageScale="1" pageWidth="850" pageHeight="1100" math="0" shadow="0">
      <root>
        <mxCell id="0" />
        <mxCell id="1" parent="0" />
        <mxCell id="QUYTH-Lv3zB11w5Gzejy-3" value="" style="group" vertex="1" connectable="0" parent="1">
          <mxGeometry x="210" y="40" width="110" height="180" as="geometry" />
        </mxCell>
        <mxCell id="QUYTH-Lv3zB11w5Gzejy-1" value="" style="fontColor=#0066CC;verticalAlign=top;verticalLabelPosition=bottom;labelPosition=center;align=center;html=1;outlineConnect=0;fillColor=#CCCCCC;strokeColor=#6881B3;gradientColor=none;gradientDirection=north;strokeWidth=2;shape=mxgraph.networks.pc;" vertex="1" parent="QUYTH-Lv3zB11w5Gzejy-3">
          <mxGeometry width="100" height="70" as="geometry" />
        </mxCell>
        <mxCell id="QUYTH-Lv3zB11w5Gzejy-2" value="IP:&lt;div&gt;ports:&lt;br&gt;&lt;div&gt;services:&lt;/div&gt;&lt;div&gt;&lt;br&gt;&lt;/div&gt;&lt;div&gt;other (user/pass)&lt;/div&gt;&lt;/div&gt;" style="text;html=1;align=left;verticalAlign=middle;whiteSpace=wrap;rounded=0;" vertex="1" parent="QUYTH-Lv3zB11w5Gzejy-3">
          <mxGeometry y="70" width="110" height="110" as="geometry" />
        </mxCell>
        <mxCell id="QUYTH-Lv3zB11w5Gzejy-5" value="" style="group" vertex="1" connectable="0" parent="1">
          <mxGeometry x="520" y="40" width="110" height="180" as="geometry" />
        </mxCell>
        <mxCell id="QUYTH-Lv3zB11w5Gzejy-6" value="" style="fontColor=#0066CC;verticalAlign=top;verticalLabelPosition=bottom;labelPosition=center;align=center;html=1;outlineConnect=0;fillColor=#CCCCCC;strokeColor=#6881B3;gradientColor=none;gradientDirection=north;strokeWidth=2;shape=mxgraph.networks.pc;" vertex="1" parent="QUYTH-Lv3zB11w5Gzejy-5">
          <mxGeometry width="100" height="70" as="geometry" />
        </mxCell>
        <mxCell id="QUYTH-Lv3zB11w5Gzejy-7" value="IP:&lt;div&gt;ports:&lt;br&gt;&lt;div&gt;services:&lt;/div&gt;&lt;div&gt;&lt;br&gt;&lt;/div&gt;&lt;div&gt;other (user/pass)&lt;/div&gt;&lt;/div&gt;" style="text;html=1;align=left;verticalAlign=middle;whiteSpace=wrap;rounded=0;" vertex="1" parent="QUYTH-Lv3zB11w5Gzejy-5">
          <mxGeometry y="70" width="110" height="110" as="geometry" />
        </mxCell>
        <mxCell id="QUYTH-Lv3zB11w5Gzejy-8" style="edgeStyle=orthogonalEdgeStyle;rounded=0;orthogonalLoop=1;jettySize=auto;html=1;exitX=0.5;exitY=0.07;exitDx=0;exitDy=0;exitPerimeter=0;entryX=0.5;entryY=0.07;entryDx=0;entryDy=0;entryPerimeter=0;endArrow=none;startFill=0;dashed=1;" edge="1" parent="1" source="QUYTH-Lv3zB11w5Gzejy-1" target="QUYTH-Lv3zB11w5Gzejy-6">
          <mxGeometry relative="1" as="geometry">
            <Array as="points">
              <mxPoint x="260" y="10" />
              <mxPoint x="570" y="10" />
            </Array>
          </mxGeometry>
        </mxCell>
        <mxCell id="QUYTH-Lv3zB11w5Gzejy-9" value="Text" style="edgeLabel;html=1;align=center;verticalAlign=middle;resizable=0;points=[];" vertex="1" connectable="0" parent="QUYTH-Lv3zB11w5Gzejy-8">
          <mxGeometry x="0.012" y="1" relative="1" as="geometry">
            <mxPoint as="offset" />
          </mxGeometry>
        </mxCell>
      </root>
    </mxGraphModel>
  </diagram>
</mxfile>
